PathFileType	4	(X/Y/Z)	C:\Users\°ÂÌØÂü\Desktop\20210112\bx_n_0_502-Unnamed.trc
DataRate	CameraRate	NumFrames	NumMarkers	Units	OrigDataRate	OrigDataStartFrame	OrigNumFrames
50.00	50.00	       5	0	mm	50.00	330	       376
Frame#	Time	
		

330	6.580	-588.72223	223.83194	1062.08472	-672.76331	272.31287	873.89221	-581.03961	-13.26083	799.19037	-581.04865	203.13004	789.89838	-680.16077	260.43640	743.27502	-715.85309	245.11235	642.15436	-715.77814	238.71680	575.35468	-665.72473	10.72850	518.25513	-669.55176	190.81407	533.18915	-753.72443	254.55185	501.85767	-577.72522	89.89438	1358.72913	-641.67065	-60.11865	162.78773	-761.25256	223.85355	205.70749	-599.69019	-62.61974	159.20166	-882.62158	296.14899	144.58987	-876.33990	-78.88496	141.49979	-600.44623	37.92861	166.49817	-546.28827	-13.11525	164.18634	-517.84558	-73.13375	143.22479	-588.97589	183.65849	174.09831	-640.48029	273.77460	160.31590	-602.03192	274.21732	159.82158	-546.65198	212.90811	165.05911	-528.31622	303.88504	146.20482	-721.46356	93.72987	1853.34888	-706.77155	271.53696	1533.99023				-795.98547	180.03906	184.69101	-688.46655	-92.59241	1540.11572	-794.32275	32.50407	174.49121	-788.62567	80.07284	1065.52808	-749.53473	-59.39336	485.91354	-755.07251	-22.93070	205.89940	-677.87799	57.51503	157.30290	-653.60858	-84.65231	869.92651	-673.77869	-74.72275	753.83063	-698.82239	-46.89835	612.04663	-707.73761	-44.34961	565.80237	-718.69049	141.94421	217.23248	-678.65179	154.31671	157.71918	-584.23138	-21.68972	1051.13293							-724.49640	69.61938	217.12801	
331	6.600	-588.61438	223.96182	1062.08020	-672.81610	272.18652	874.27448	-581.24518	-13.34061	799.13861	-580.73425	203.01985	789.76422	-680.16711	260.49002	742.98187	-715.81598	245.18994	642.15991	-715.76575	238.78444	575.44934	-665.83154	10.88384	518.12732	-669.50342	190.91440	533.19360	-753.72595	254.39682	501.67160	-577.64038	89.91945	1358.72534	-641.67065	-60.11865	162.78773	-761.39703	223.73024	205.61963	-599.71509	-62.47770	159.32957	-882.63617	296.06729	144.61794	-876.12219	-78.89765	141.41621	-600.57819	38.05876	166.49492	-546.34888	-12.89108	164.23903	-517.77472	-72.88705	143.18854	-588.80286	183.54115	173.92952	-640.53925	273.89902	160.24518	-602.03192	274.21732	159.82158	-546.83099	212.87607	165.07027	-528.37946	304.01703	146.31387	-721.17456	93.69588	1853.48474	-706.71350	271.57214	1534.06055				-795.73584	179.73630	184.62660	-688.41083	-92.46940	1540.30774	-794.45886	32.48566	174.60966	-788.59027	80.10183	1065.55176	-749.58826	-59.27064	485.74878	-755.07251	-22.93070	205.89940	-677.87799	57.51503	157.30290	-653.70349	-84.57945	869.86731	-673.94562	-74.44076	753.73456	-698.95679	-47.22015	612.44196	-707.77460	-44.31503	565.85052	-718.87708	141.67427	217.11899	-678.71344	154.31573	157.59708	-584.23633	-21.75809	1051.08899							-724.50336	69.52022	217.17726	
332	6.620	-588.49359	223.96780	1062.09717	-672.53931	272.54822	874.09821	-581.22321	-13.23569	799.04224	-580.59485	203.07230	789.98175	-680.19281	260.45093	743.07977	-715.90295	245.09219	641.97913	-715.77814	238.71680	575.35468	-666.08624	11.04865	518.05890	-669.61542	190.90587	533.18134	-754.00116	254.58516	502.09442	-577.54419	90.00887	1358.80701	-641.78491	-59.97528	162.77107	-761.18225	223.86342	205.82036	-599.80017	-62.23814	158.97737	-882.66248	295.99695	144.47035	-876.14905	-78.79788	141.54057	-600.53235	37.89985	166.37245	-546.23718	-13.18485	164.29602	-517.85974	-73.07893	143.17383	-588.87408	183.45335	174.17960	-640.54840	273.75513	160.39220	-602.03278	274.21591	159.72636	-546.66254	212.97739	164.98537	-528.19629	303.89063	146.30914	-720.96344	93.50453	1853.40869	-706.66736	271.58527	1534.09717				-795.67389	179.88156	184.42177	-688.15753	-92.36935	1540.21924	-794.20721	32.52502	174.39348	-788.68481	80.14375	1065.60413	-749.81311	-59.12563	485.71768	-754.89032	-22.91100	206.00627	-677.68335	57.49613	157.22969	-653.70349	-84.57945	869.86731	-673.84955	-74.51443	753.79675	-699.21338	-47.09087	612.33655	-707.83398	-44.05600	565.67401	-718.87708	141.67427	217.11899	-678.65179	154.31671	157.71918	-584.05530	-21.55202	1051.14807							-724.50336	69.52022	217.17726	
333	6.640	-588.49615	223.99086	1062.07239	-672.81470	272.38055	873.70490	-581.23242	-13.28152	799.04346	-580.83026	202.89603	789.74030	-680.08069	260.65128	742.89276	-715.82654	245.31151	642.25806	-715.77814	238.71680	575.35468	-665.98853	10.91119	518.16455	-669.87994	190.90616	532.93250	-753.86749	254.54146	502.01840	-577.52710	90.15554	1358.75928	-641.78491	-59.97528	162.77107	-761.34351	223.96693	205.80492	-599.84247	-62.65107	159.25995	-882.68982	295.97638	144.47710	-876.34143	-78.82446	141.55722	-600.44623	37.92861	166.49817	-546.18658	-13.20191	164.21593	-517.81085	-72.96118	143.22667	-588.97589	183.65849	174.09831	-640.48029	273.77460	160.31590	-602.11218	274.29520	159.67479	-546.84924	212.74545	165.04074	-528.31622	303.88504	146.20482	-720.40704	93.62405	1853.45581	-706.61298	271.52359	1534.14514				-795.60785	179.79993	184.38239	-687.87366	-92.25046	1540.09241	-794.32275	32.50407	174.49121	-788.49158	80.09734	1065.61450	-749.81757	-59.17815	486.02890	-754.89032	-22.91100	206.00627	-677.13019	58.38780	157.91283	-653.70349	-84.57945	869.86731	-673.91937	-74.52811	753.74097	-699.16211	-46.86472	612.15790	-707.98529	-44.16990	565.62042	-718.95294	141.67101	217.28177	-678.56598	154.30562	157.88124	-584.17517	-21.54607	1051.25732							-724.50336	69.52022	217.17726	
334	6.660	-588.51727	224.29970	1062.18677	-672.81470	272.38055	873.70490	-581.02545	-13.10411	799.10266	-580.64752	203.18941	789.97064	-680.10504	260.58255	742.99695	-715.92139	245.24962	642.34882	-715.71576	238.81517	575.34241	-665.87598	10.79742	518.17712	-669.60315	190.96205	533.01758	-753.72595	254.39682	501.67160	-577.55981	90.34274	1358.82471	-641.67065	-60.11865	162.78773	-761.20215	223.91817	205.73601	-599.72229	-62.38291	159.17307	-882.75635	296.12396	144.58546	-876.33990	-78.88496	141.49979	-600.44623	37.92861	166.49817	-546.30255	-13.00261	164.31503	-517.85077	-73.15417	143.27379	-588.97589	183.65849	174.09831	-640.62366	273.82147	160.45837	-602.19434	274.41925	159.66945	-546.87506	212.90344	165.11017	-528.28241	304.01428	146.31183	-720.02161	93.41672	1853.56079	-706.53888	271.59454	1534.23511	-677.68335	57.49613	157.22969	-795.84259	179.69327	184.50047	-687.66565	-92.28970	1540.25879	-794.36798	32.62879	174.37679	-788.47125	80.24150	1065.54028	-749.75848	-59.21478	485.90112	-755.10004	-23.02917	206.14540				-653.60858	-84.65231	869.92651	-673.84515	-74.47909	753.87335	-698.95215	-46.93176	612.21033	-707.80121	-44.15135	565.50458	-718.69049	141.94421	217.23248	-678.65179	154.31671	157.71918	-584.18005	-21.43572	1051.07739							-724.50336	69.52022	217.17726	
